<?xml version="1.0" ?><svg id="art" viewBox="0 0 64 64" xmlns="http://www.w3.org/2000/svg"><defs><style>.cls-1{fill:#897564;}.cls-2{fill:#5df9e6;}.cls-3{fill:#b59b88;}.cls-4{fill:#041256;}.cls-5{fill:#283d77;}.cls-6{fill:#212e5e;}.cls-7{fill:#2f4984;}.cls-8{fill:#819bc6;}.cls-9{fill:#ddc0ab;}</style></defs><title/><path class="cls-1" d="M45,22.05,11.62,55.38a2.12,2.12,0,0,1-3,0h0a2.12,2.12,0,0,1,0-3L42,19.05Z"/><path class="cls-2" d="M42,19.05l-.44.44,1.83,1.84L10,54.65a2.11,2.11,0,0,1-1.49.62l.09.11a2.12,2.12,0,0,0,3,0L45,22.05Z"/><path class="cls-3" d="M9,54.28,42.27,21l1.89,1.89.79-.79-3-3L8.62,52.38a2.12,2.12,0,0,0-.19,2.77A2.11,2.11,0,0,1,9,54.28Z"/><path class="cls-4" d="M10.12,57a3.12,3.12,0,0,1-2.21-5.33l34-34,4.41,4.41-34,34A3.15,3.15,0,0,1,10.12,57ZM42,20.47,9.33,53.08a1.12,1.12,0,0,0,0,1.59,1.11,1.11,0,0,0,1.58,0L43.53,22.05Z"/><polygon class="cls-5" points="47.21 27 52.92 21.29 54.91 9.09 42.71 11.08 37 16.79 35.01 28.99 47.21 27"/><polygon class="cls-6" points="54.91 9.09 35.01 28.99 47.21 27 52.92 21.29 54.91 9.09"/><polygon class="cls-5" points="42.71 11.08 42.61 11.18 44.96 19.04 52.82 21.39 52.92 21.29 54.91 9.09 42.71 11.08"/><polygon class="cls-7" points="39.33 24.67 37.09 17.17 35.18 28.82 46.83 26.91 39.33 24.67"/><polygon class="cls-5" points="39.33 24.67 35.18 28.82 46.83 26.91 39.33 24.67"/><polygon class="cls-2" points="50.77 20.95 46.39 25.34 37.08 26.92 34.5 29.29 46.7 27.3 52.41 21.59 50.77 20.95"/><polygon class="cls-7" points="42.71 11.08 42.61 11.18 44.96 19.04 54.91 9.09 42.71 11.08"/><polygon class="cls-8" points="37.65 18.83 37.73 18.33 43.44 12.62 55.03 10.73 55.22 9.53 43.02 11.52 37.31 17.23 35.32 29.43 35.92 29.33 37.63 18.85 37.65 18.83"/><path class="cls-4" d="M33.8,30.2l2.27-13.89,6.16-6.16L56.12,7.88,53.85,21.77l-6.16,6.16Zm4.14-12.93L36.22,27.78l10.51-1.72L52,20.81,53.7,10.3,43.19,12ZM47.21,27h0Z"/><path class="cls-4" d="M42.71,11.08l-.08.11v0a63.82,63.82,0,0,1,2.81,7.73l-.34-.34a63.82,63.82,0,0,1,7.73,2.81h0l.11-.08-.09.11h0a61.87,61.87,0,0,1-8-1.89l-.26-.08-.08-.26a61.87,61.87,0,0,1-1.89-8v0h0Z"/><path class="cls-4" d="M45.31,19.39,35,29l9.6-10.3a.48.48,0,0,1,.7,0,.5.5,0,0,1,0,.71Z"/><rect class="cls-9" height="7.52" rx="1.24" transform="translate(-13.43 31.92) rotate(-44.99)" width="3.11" x="30.27" y="28.41"/><path class="cls-4" d="M33.39,36.42a2.22,2.22,0,0,1-1.58-.66l-3.57-3.57a2.24,2.24,0,0,1,0-3.16l.45-.45a2.24,2.24,0,0,1,3.16,0l3.57,3.57a2.22,2.22,0,0,1,0,3.16l-.45.45A2.22,2.22,0,0,1,33.39,36.42Zm-3.12-6.5a.28.28,0,0,0-.17.07l-.45.45a.25.25,0,0,0,0,.34l3.57,3.57a.22.22,0,0,0,.34,0L34,33.9a.29.29,0,0,0,.07-.17.27.27,0,0,0-.07-.17L30.44,30A.28.28,0,0,0,30.27,29.92Z"/><rect class="cls-9" height="7.52" rx="1.24" transform="translate(-11.3 32.8) rotate(-44.99)" width="3.11" x="32.4" y="26.28"/><path class="cls-4" d="M35.51,34.29a2.2,2.2,0,0,1-1.58-.66,1,1,0,0,1,0-1.41,1,1,0,0,1,1.42,0,.2.2,0,0,0,.33,0l.45-.45a.22.22,0,0,0,.07-.17.24.24,0,0,0-.07-.17l-3.57-3.56a.24.24,0,0,0-.33,0l-.45.45a.25.25,0,0,0,0,.34,1,1,0,0,1,0,1.41,1,1,0,0,1-1.42,0,2.25,2.25,0,0,1,0-3.17l.45-.44a2.23,2.23,0,0,1,3.17,0L37.54,30a2.23,2.23,0,0,1,0,3.17l-.44.44A2.22,2.22,0,0,1,35.51,34.29Z"/><rect class="cls-9" height="7.52" rx="1.24" transform="translate(-9.18 33.68) rotate(-44.99)" width="3.11" x="34.52" y="24.16"/><path class="cls-4" d="M37.64,32.17a2.22,2.22,0,0,1-1.58-.66,1,1,0,1,1,1.41-1.41.22.22,0,0,0,.34,0l.44-.45a.26.26,0,0,0,.08-.17.27.27,0,0,0-.07-.17l-3.57-3.57a.25.25,0,0,0-.34,0l-.45.45a.25.25,0,0,0,0,.34,1,1,0,0,1-1.41,1.41,2.24,2.24,0,0,1,0-3.16l.45-.45a2.24,2.24,0,0,1,3.16,0l3.57,3.57a2.22,2.22,0,0,1,0,3.16l-.45.45A2.22,2.22,0,0,1,37.64,32.17Z"/></svg>